<svg width="32" height="32" viewBox="0 0 32 32" fill="none" xmlns="http://www.w3.org/2000/svg">
<path d="M28.5805 3.44272C27.9136 2.75822 26.9265 2.5032 26.0061 2.77163L4.544 9.01277C3.57293 9.28256 2.88465 10.057 2.69924 11.0408C2.50982 12.0421 3.17144 13.3131 4.03578 13.8446L10.7465 17.9691C11.4348 18.3919 12.3232 18.2859 12.8927 17.7114L20.5772 9.97915C20.964 9.5765 21.6043 9.5765 21.9912 9.97915C22.378 10.3684 22.378 10.9992 21.9912 11.4019L14.2933 19.1355C13.7224 19.7086 13.6157 20.6011 14.0359 21.2937L18.1363 28.0718C18.6164 28.877 19.4435 29.3334 20.3504 29.3334C20.4572 29.3334 20.5772 29.3334 20.684 29.3199C21.7244 29.1858 22.5513 28.4745 22.8581 27.4678L29.2208 6.03313C29.5009 5.12045 29.2475 4.12724 28.5805 3.44272Z" fill="white"/>
</svg>
